Patient4_TMGait_0pt4_03_left_26_EMG.mot
version=1
nRows=32
nColumns=33
inDegrees=no
endheader
time	1LAddLong	2LGlutMax	3LGlutMed	4LIliopsoas	5LSemiMemb	6LBicFemLong	7LRecFem	8LVastMed	9LVastLat	10LGasMed	11LTibAnt	12lTibPost	13LPeroneusLong	14LSol	15LExtDigLong	16LFlexDigLong	17RAddLong	18RGlutMax	19RGlutMed	20RIliopsoas	21RSemiMemb	22RBicFemLong	23RRecFem	24RVastMed	25RVastLat	26RGasMed	27RTibAnt	28RTibPost	29RPeroneusLong	30RSol	31RExtDigLong	32RFlexDigLong
35.628	-0.010681	0.052795	-0.02533	-0.001221	-0.027161	0.078125	-0.016632	0.002136	0.051422	-0.048065	-0.027466	-0.012512	0.020905	-0.056915	0.045013	-0.002441	0.045471	-0.035858	-0.52261	0.024261	0.081787	-0.090637	-0.34637	-0.015411	0.014038	-0.007935	0.29892	-0.003357	-0.000763	-0.013428	0.00351	-0.008392
35.629	0.009918	0.077362	-0.0383	0.000763	-0.082397	0.050049	-0.036926	0.005341	0.041809	-0.048218	0.057068	-0.004425	0.00824	-0.070038	0.055237	-0.001678	0.059509	0.004883	-0.40253	0.010529	0.21088	-0.11856	-0.1944	0.039368	0.086517	-0.014954	0.23834	-0.00412	-0.042419	0.011597	-0.00061	-0.001678
35.63	0.010223	0.054016	-0.059052	0.016785	-0.1535	0.011139	-0.035248	-0.005341	0.051727	-0.036926	0.079956	-0.006256	-0.016022	-0.055237	0.040436	0.001678	0.045471	-0.040588	-0.041351	-0.022583	0.22339	-0.10269	-0.067749	0.015411	0.02533	-0.008698	0.16449	-0.003662	-0.023193	0.038757	0.000153	0.000458
35.631	0.0177	0.05249	-0.075684	0.014343	-0.050812	-0.034485	-0.037384	-0.000763	0.042725	-0.018616	0.097809	0.016327	-0.011444	-0.077209	0.025787	0.003967	0.040894	0.035706	0.87631	-0.007172	-0.11749	0.019684	-0.09613	0.04837	0.004883	-0.007324	-0.26642	-0.003357	-0.015564	0.004578	-0.00061	-0.002289
35.632	0.02594	0.041962	-0.077209	0.008392	0.07019	-0.023346	-0.033875	0.002136	0.028534	-0.021362	0.069733	-0.00061	0.010529	-0.099487	-0.052338	0.001678	0.039063	0.024261	0.34607	0.011139	-0.33554	0.12207	-0.1387	-0.011597	0.00412	-0.014954	-0.090942	-0.001831	0.001221	-0.075531	-0.002289	-0.000305
35.633	0.01297	0.039368	-0.030365	0.006866	0.076141	-0.003815	-0.043182	0.007172	0.035706	-0.016174	0.026703	0.005493	-0.009155	-0.085297	-0.10956	0.001678	0.014038	-0.002136	-0.21591	0.008087	-0.32394	0.065765	-0.112	0.008392	0.001526	-0.00885	0.069733	-0.003357	0.022125	-0.1413	0.000916	-0.00885
35.634	0.011749	0.04776	-0.02533	0.005341	0.042725	-0.003815	-0.043945	0.002747	0.037689	-0.013123	0.003967	0.006714	-0.045929	-0.085907	0.031586	0.005341	-0.007019	0.004578	-0.05661	0.034332	-0.14984	0.061951	-0.083923	0.019379	0.007019	-0.004883	-0.064087	-0.003662	0.032654	-0.09903	0.001373	-0.01709
35.635	0.015106	0.032654	0.044708	-0.001221	0.018463	0.005341	-0.038757	0.001068	0.03891	-0.022888	-0.013123	0.027466	-0.045929	-0.061493	0.18982	-0.000153	0.013275	0.057983	0.13473	0.041199	0.031281	0.061646	-0.057526	-0.045929	-0.002136	-0.003967	-0.20294	-0.001526	-0.028534	0.021515	-0.00412	-0.010071
35.636	0.002136	0.021057	-0.015717	0.007019	0.007629	-0.00061	-0.044708	0.004425	0.028381	-0.024872	-0.018005	0.01709	-0.023193	-0.04776	0.040588	0.008392	-0.014648	-0.070953	-0.168	-0.017853	0.11581	0.046997	-0.056305	0.01709	0.031586	-0.012512	-0.098572	-0.002594	-0.10742	0.002136	0.001221	-0.012512
35.637	0.006714	0.024719	0.002747	-0.000305	0.00946	-0.010071	-0.040131	0.009918	0.037537	-0.02243	0.039368	0.023956	-0.002594	-0.059967	0.039673	0.006256	-0.015564	-0.1474	0.35523	-0.050201	0.065918	-0.024261	-0.076447	0.045624	0.023651	-0.016022	-0.047455	-0.001221	-0.11581	-0.078735	0.000458	-0.009155
35.638	0.009613	0.002747	0.007172	0.011292	0.010071	0.010071	-0.05661	0.007782	0.029907	-0.031128	0.018463	0.024414	0.048065	-0.033569	-0.014954	0.004578	0.009613	-0.14801	0.51651	-0.032806	-0.11505	-0.081329	-0.049744	0.054932	0.032043	-0.015869	-0.067596	0	-0.097198	-0.31982	-0.003967	-0.015869
35.639	0.003815	0.011749	-0.031738	-0.007629	0.007172	0.021362	-0.045624	0.009003	0.034332	-0.063629	0.077057	0.022278	0.091705	-0.023651	-0.041656	0.009613	0.009155	-0.11887	-0.02533	0.032654	-0.23666	-0.044861	-0.051575	0.017242	0.067596	-0.011292	-0.06485	0.028992	0.054932	-0.34622	-0.004578	-0.008392
35.64	0.003357	0.014191	-0.038147	0.007324	-0.022888	-0.006256	-0.046082	0.007324	0.023804	-0.057068	-0.098267	0.02243	0.10239	-0.048218	-0.10315	-0.004425	-0.015869	-0.079498	-0.33279	0.054626	0.32059	-0.005493	-0.021973	0.027924	0.029297	-0.007477	-0.00412	0.03952	0.089569	-0.29633	-0.001068	-0.002594
35.641	-0.005341	0.033112	-0.037079	0.009766	-0.018768	0.007019	-0.037079	0.003357	0.031281	-0.063019	-0.057678	0.026093	0.088043	-0.055237	-0.10803	-0.007019	0.010529	-0.014191	-0.24384	0.048676	0.41641	-0.001678	-0.016327	-0.001373	0.034943	-0.010223	0.10208	-0.25284	0.03479	0.056	-0.002441	-0.007935
35.642	0.003357	0.019836	-0.037689	0.010223	-0.027618	-0.00946	-0.040131	0.004883	0.036011	-0.008698	-0.029297	0.03067	-0.065002	-0.064697	0.067749	-0.012512	0.014496	0.046387	-0.057831	0.030975	0.089874	0.025177	-0.006714	-0.014191	0.023193	-0.007324	0.0383	0.067444	-0.072937	0.35507	-0.00061	-0.007172
35.643	0.009003	0.006409	0.001373	0.003967	-0.010223	-0.027771	-0.029755	0.003967	0.033569	-0.010223	0.06546	0.021973	-0.15442	-0.051727	0.11292	-0.013123	-0.008087	-0.040436	0.63385	-0.044861	-0.36484	0.024719	-0.028687	-0.028381	0.03006	-0.015411	0.023499	0.056152	-0.11383	0.4982	0.000153	-0.016174
35.644	0.015411	-0.008545	0.082703	0.002899	0.051422	-0.058136	-0.028992	0.011597	0.033112	-0.01358	0.078278	0.029907	-0.099945	-0.057373	0.017242	-0.01297	-0.022583	-0.040741	0.23377	-0.039215	-0.081787	-0.084381	0.001373	-0.067596	-0.000763	-0.00351	0.068512	0.014496	-0.069427	0.031433	-0.002136	-0.007935
35.645	0.015106	-0.031738	0.075226	-0.00351	0.039673	-0.023804	-0.042572	0.005646	0.013733	-0.022125	0.04715	0.025787	-0.061493	-0.081482	-0.05188	-0.006714	-0.011139	-0.10193	-0.2385	0.032806	0.12589	-0.037994	0.059967	-0.090027	-0.04425	0.005188	0.15579	0.003052	-0.054321	-0.022583	0.002899	-0.009308
35.646	0.01297	-0.045471	0.066071	-0.001984	0.022888	0.016785	-0.057831	0.005188	0.01236	-0.019379	0.056	0.030212	-0.058594	-0.091858	-0.10696	-0.009613	-0.007629	-0.14145	-0.05661	0.026093	0.089722	0.039215	0.13229	-0.10849	-0.060272	0.002747	0.22156	0.003815	-0.010529	0.30746	-0.001526	0.010681
35.647	0.011139	-0.037994	0.097504	0.009308	-0.006866	0.043335	-0.049286	0.002747	0.014954	-0.025177	-0.001221	0.018463	-0.028381	-0.097198	-0.087738	-0.00473	0.01236	-0.063934	0.48386	0.007172	0.052795	0.092621	0.16174	-0.052948	-0.093842	-0.005035	0.13153	-0.000153	-0.016327	0.36362	0.000916	-0.005798
35.648	0.01297	-0.038605	0.028076	0.000305	-0.009918	0.006409	-0.056458	0.004883	0.001373	-0.027313	-0.000458	0.025635	-0.01709	-0.092621	-0.031586	0.001068	-0.001526	-0.08255	0.27863	-0.000458	-0.004883	0.082092	0.21576	-0.023499	-0.087738	-0.01358	0.10101	-0.001373	-0.037689	0.22873	0.007935	-0.005035
35.649	0.02121	-0.033875	-0.003815	0.002747	-0.002594	0.006866	-0.04837	0.001831	0.00824	-0.030823	-0.024567	0.007629	0.001678	-0.095978	0.062103	0.00473	-0.004883	-0.10544	-0.34027	0.00351	-0.010071	0.040131	0.1767	-0.049286	-0.088348	-0.009613	0.074921	-0.002136	-0.005035	0.088501	0.000153	-0.001068
35.65	0.018768	-0.04364	-0.027313	-0.00351	-0.007629	0.007477	-0.047607	0.006104	-0.007324	-0.014801	-0.009308	0.020447	0.006714	-0.081177	0.091553	-0.012054	0.000458	-0.11246	-0.32974	-0.00946	0.16342	0.00885	0.13245	-0.035553	-0.1149	-0.009003	0.06485	-0.003357	-0.022583	0.028992	-0.002289	-0.010376
35.651	0.018005	-0.048218	-0.000458	-0.007782	0.003357	-0.026703	-0.037231	0.005188	0.009613	-0.054321	0.019836	0.015717	-0.013275	-0.071259	0.052338	0.002289	0.003967	-0.085449	-0.1796	-0.065308	0.17777	0.076294	0.002289	-0.005035	-0.13001	-0.007477	0.057068	-0.001221	0.001678	0.062103	-0.004578	-0.001831
35.652	0.015869	-0.047607	-0.013733	0.018005	0.015869	-0.025787	-0.027313	0.002441	0.012665	0.019989	0.005341	0.016022	-0.010071	-0.06897	-0.017548	0.002747	0.005188	-0.01297	-0.077362	-0.022583	0.046234	0.10178	-0.042114	-0.054169	-0.084229	-0.003052	0.053558	-0.00351	-0.005035	0.15778	-0.001221	-0.002899
35.653	0.011292	-0.054321	-0.036774	0.009308	0.008545	-0.014954	-0.035553	0.007019	0.009766	-0.048523	-0.014343	0.016632	-0.017548	-0.093384	-0.071411	-0.002441	0.011292	-0.006256	-0.36362	0.018921	-0.038757	0.068054	-0.21118	-0.12802	0.051117	-0.005341	0.055542	-0.00824	-0.021973	0.045624	-0.002289	-0.003662
35.654	0.01358	-0.054932	-0.030518	0.004272	0.004883	-0.016937	-0.03891	0.010223	0.01297	0.027618	-0.008087	0.018768	-0.015869	-0.1001	-0.057373	-0.008392	0.021362	-0.021973	0.35278	-0.014496	0.057983	0.012054	-0.35294	-0.11063	0.076599	-0.009308	0.008545	-0.009308	-0.028229	0.000305	0.005493	-0.010681
35.655	0.009613	-0.066223	-0.038452	0.015869	0.005646	0.007629	-0.039215	0.007019	0.007477	-0.0354	-0.00061	0.017548	-0.023346	-0.087585	-0.026245	0.002441	0.016785	-0.055084	0.52017	-0.043945	0.058441	0.026855	-0.34271	-0.096436	0.059357	-0.002441	-0.018616	-0.010986	-0.084229	0.10422	-0.000458	-0.020142
35.656	0.006104	-0.081177	-0.047607	0.010071	-0.000916	0.040894	-0.041046	0.003967	0.007782	0.00412	0.004272	0.015411	-0.014343	-0.090332	-0.014648	-0.003357	0.042114	-0.12665	-0.43747	0.069885	-0.028229	0.056305	-0.24353	-0.046082	0.094299	0.000305	-0.010834	-0.015717	-0.16434	0.010223	-0.001221	-0.013733
35.657	0.00473	-0.040588	-0.047302	-0.009766	-0.009613	0.049744	-0.063171	0.011597	0.007782	-0.020905	-0.005035	0.014954	-0.016479	-0.08316	-0.011139	-0.003204	0.044556	-0.048676	-0.5397	0.042419	-0.09491	0.07431	-0.076294	-0.10452	0.121	0.007172	0.030212	-0.008545	-0.16281	-0.085297	-0.005035	-0.015106
35.658	0.008392	-0.049438	-0.055542	0.006561	-0.034485	0.019379	-0.036774	-0.021667	0.002594	-0.018768	0.009003	0.015259	-0.02594	-0.058136	-0.001678	-0.009613	0.058289	-0.062561	-0.001373	-0.04837	0.16357	-0.055237	0.006104	-0.084534	0.10315	0.006714	0.032654	0.007629	-0.052185	-0.12405	-0.002899	-0.012817
35.659	0.01297	-0.045166	-0.058136	0.002289	-0.011749	-0.028534	-0.045013	0.018463	0.00412	-0.028381	-0.020294	0.017548	-0.035248	-0.052338	0.027771	-0.001526	0.079193	-0.071869	0.73898	-0.096588	0.30762	-0.11017	0.087585	-0.046387	0.060883	-0.00351	0.032654	-0.002594	0.10849	-0.037384	0.000458	-0.011292
